<svg width="23" height="35" viewBox="0 0 23 35" fill="none" xmlns="http://www.w3.org/2000/svg">
<path d="M22.4999 10.92C22.4999 17.359 17.4999 18.359 17.4999 24.36C17.4999 27.458 14.3769 27.719 11.9999 27.719C9.94694 27.719 5.41394 26.94 5.41394 24.358C5.41394 18.36 0.499939 17.36 0.499939 10.92C0.499939 4.889 5.78494 0 11.5829 0C17.3829 0 22.4999 4.889 22.4999 10.92Z" fill="#FFD983"/>
<path d="M15.6669 32.36C15.6669 33.188 13.4329 34.86 11.4999 34.86C9.56695 34.86 7.33295 33.188 7.33295 32.36C7.33295 31.532 9.56595 31.86 11.4999 31.86C13.4329 31.86 15.6669 31.532 15.6669 32.36Z" fill="#CCD6DD"/>
<path d="M16.2069 10.153C15.8159 9.76199 15.1839 9.76199 14.7929 10.153L11.4999 13.446L8.20694 10.153C7.81594 9.76199 7.18394 9.76199 6.79294 10.153C6.40194 10.544 6.40194 11.176 6.79294 11.567L10.4999 15.274V25.86C10.4999 26.413 10.9479 26.86 11.4999 26.86C12.0519 26.86 12.4999 26.413 12.4999 25.86V15.274L16.2069 11.567C16.5979 11.176 16.5979 10.544 16.2069 10.153Z" fill="#FFCC4D"/>
<path d="M17.4999 30.86C17.4999 31.964 16.6039 32.86 15.4999 32.86H7.49994C6.39594 32.86 5.49994 31.964 5.49994 30.86V24.86H17.4999V30.86Z" fill="#99AAB5"/>
<path d="M5.49894 31.86C5.01894 31.86 4.59494 31.513 4.51394 31.024C4.42294 30.48 4.79094 29.964 5.33594 29.874L17.3359 27.874C17.8799 27.776 18.3959 28.151 18.4859 28.696C18.5769 29.24 18.2089 29.756 17.6639 29.846L5.66394 31.846C5.60894 31.856 5.55294 31.86 5.49894 31.86ZM5.49894 27.86C5.01894 27.86 4.59494 27.513 4.51394 27.024C4.42294 26.48 4.79094 25.964 5.33594 25.874L17.3359 23.874C17.8799 23.777 18.3959 24.151 18.4859 24.696C18.5769 25.24 18.2089 25.756 17.6639 25.846L5.66394 27.846C5.60894 27.856 5.55294 27.86 5.49894 27.86Z" fill="#CCD6DD"/>
</svg>
